<svg width="322" height="86" viewBox="0 0 322 86" fill="none" xmlns="http://www.w3.org/2000/svg">
<circle cx="29" cy="25" r="25" fill="#61B45A"/>
<path fill-rule="evenodd" clip-rule="evenodd" d="M37.5859 15.6691C38.0145 15.242 38.5931 15.0017 39.1966 15C39.8002 14.9983 40.3801 15.2355 40.8111 15.6601C41.242 16.0848 41.4894 16.6629 41.4997 17.2694C41.5099 17.8759 41.2823 18.4621 40.866 18.9013L28.6397 34.2621C28.4296 34.4896 28.1759 34.6722 27.894 34.7989C27.6121 34.9256 27.3076 34.9939 26.9988 34.9996C26.6901 35.0054 26.3833 34.9485 26.0969 34.8323C25.8105 34.7162 25.5503 34.5432 25.332 34.3237L17.2311 26.1784C17.0054 25.9671 16.8244 25.7122 16.6989 25.429C16.5733 25.1458 16.5058 24.8401 16.5004 24.5301C16.4949 24.2201 16.5517 23.9122 16.6672 23.6247C16.7827 23.3372 16.9547 23.0761 17.1728 22.8568C17.3909 22.6376 17.6507 22.4648 17.9367 22.3486C18.2228 22.2325 18.5291 22.1755 18.8376 22.181C19.146 22.1864 19.4501 22.2543 19.7319 22.3805C20.0137 22.5067 20.2673 22.6886 20.4776 22.9154L26.8909 29.3584L37.5277 15.7368C37.5466 15.713 37.5671 15.6903 37.5889 15.6691H37.5859Z" fill="white"/>
<line x1="59" y1="22" x2="129" y2="22" stroke="#61B45A" stroke-width="6"/>
<circle cx="159" cy="25" r="25" fill="#C5165B"/>
<path d="M167.609 37H151.641V33.6406L157.375 27.8438C159.073 26.1042 160.182 24.901 160.703 24.2344C161.224 23.5573 161.599 22.9323 161.828 22.3594C162.057 21.7865 162.172 21.1927 162.172 20.5781C162.172 19.6615 161.917 18.9792 161.406 18.5312C160.906 18.0833 160.234 17.8594 159.391 17.8594C158.505 17.8594 157.646 18.0625 156.812 18.4688C155.979 18.875 155.109 19.4531 154.203 20.2031L151.578 17.0938C152.703 16.1354 153.635 15.4583 154.375 15.0625C155.115 14.6667 155.922 14.3646 156.797 14.1562C157.672 13.9375 158.651 13.8281 159.734 13.8281C161.161 13.8281 162.422 14.0885 163.516 14.6094C164.609 15.1302 165.458 15.8594 166.062 16.7969C166.667 17.7344 166.969 18.8073 166.969 20.0156C166.969 21.0677 166.781 22.0573 166.406 22.9844C166.042 23.901 165.469 24.8438 164.688 25.8125C163.917 26.7812 162.552 28.1615 160.594 29.9531L157.656 32.7188V32.9375H167.609V37Z" fill="white"/>
<line x1="189" y1="22" x2="259" y2="22" stroke="#C5165B" stroke-width="6"/>
<circle cx="289" cy="25" r="22.5" stroke="#C5165B" stroke-width="5"/>
<path d="M296.719 19.2656C296.719 20.6927 296.286 21.9062 295.422 22.9062C294.557 23.9062 293.344 24.5938 291.781 24.9688V25.0625C293.625 25.2917 295.021 25.8542 295.969 26.75C296.917 27.6354 297.391 28.8333 297.391 30.3438C297.391 32.5417 296.594 34.2552 295 35.4844C293.406 36.7031 291.13 37.3125 288.172 37.3125C285.693 37.3125 283.495 36.901 281.578 36.0781V31.9688C282.464 32.4167 283.438 32.7812 284.5 33.0625C285.562 33.3438 286.615 33.4844 287.656 33.4844C289.25 33.4844 290.427 33.2135 291.188 32.6719C291.948 32.1302 292.328 31.2604 292.328 30.0625C292.328 28.9896 291.891 28.2292 291.016 27.7812C290.141 27.3333 288.745 27.1094 286.828 27.1094H285.094V23.4062H286.859C288.63 23.4062 289.922 23.1771 290.734 22.7188C291.557 22.25 291.969 21.4531 291.969 20.3281C291.969 18.599 290.885 17.7344 288.719 17.7344C287.969 17.7344 287.203 17.8594 286.422 18.1094C285.651 18.3594 284.792 18.7917 283.844 19.4062L281.609 16.0781C283.693 14.5781 286.177 13.8281 289.062 13.8281C291.427 13.8281 293.292 14.3073 294.656 15.2656C296.031 16.224 296.719 17.5573 296.719 19.2656Z" fill="#C5165B"/>
<path d="M8.85449 76.4541H3.79199V79.8818H9.7334V82H1.15527V69.2031H9.71582V71.3389H3.79199V74.3887H8.85449V76.4541ZM16.2637 79.3721C16.2637 79.0615 16.1084 78.8184 15.7979 78.6426C15.4932 78.4609 15.001 78.2998 14.3213 78.1592C12.0596 77.6846 10.9287 76.7236 10.9287 75.2764C10.9287 74.4326 11.2773 73.7295 11.9746 73.167C12.6777 72.5986 13.5947 72.3145 14.7256 72.3145C15.9326 72.3145 16.8965 72.5986 17.6172 73.167C18.3438 73.7354 18.707 74.4736 18.707 75.3818H16.167C16.167 75.0186 16.0498 74.7197 15.8154 74.4854C15.5811 74.2451 15.2148 74.125 14.7168 74.125C14.2891 74.125 13.958 74.2217 13.7236 74.415C13.4893 74.6084 13.3721 74.8545 13.3721 75.1533C13.3721 75.4346 13.5039 75.6631 13.7676 75.8389C14.0371 76.0088 14.4883 76.1582 15.1211 76.2871C15.7539 76.4102 16.2871 76.5508 16.7207 76.709C18.0625 77.2012 18.7334 78.0537 18.7334 79.2666C18.7334 80.1338 18.3613 80.8369 17.6172 81.376C16.873 81.9092 15.9121 82.1758 14.7344 82.1758C13.9375 82.1758 13.2285 82.0352 12.6074 81.7539C11.9922 81.4668 11.5088 81.0771 11.1572 80.585C10.8057 80.0869 10.6299 79.5508 10.6299 78.9766H13.0381C13.0615 79.4277 13.2285 79.7734 13.5391 80.0137C13.8496 80.2539 14.2656 80.374 14.7871 80.374C15.2734 80.374 15.6396 80.2832 15.8857 80.1016C16.1377 79.9141 16.2637 79.6709 16.2637 79.3721ZM24.332 80.1279C24.8008 80.1279 25.1816 79.999 25.4746 79.7412C25.7676 79.4834 25.9199 79.1406 25.9316 78.7129H28.3135C28.3076 79.3574 28.1318 79.9492 27.7861 80.4883C27.4404 81.0215 26.9658 81.4375 26.3623 81.7363C25.7646 82.0293 25.1025 82.1758 24.376 82.1758C23.0166 82.1758 21.9443 81.7451 21.1592 80.8838C20.374 80.0166 19.9814 78.8213 19.9814 77.2979V77.1309C19.9814 75.666 20.3711 74.4971 21.1504 73.624C21.9297 72.751 22.999 72.3145 24.3584 72.3145C25.5479 72.3145 26.5 72.6543 27.2148 73.334C27.9355 74.0078 28.3018 74.9072 28.3135 76.0322H25.9316C25.9199 75.54 25.7676 75.1416 25.4746 74.8369C25.1816 74.5264 24.7949 74.3711 24.3145 74.3711C23.7227 74.3711 23.2744 74.5879 22.9697 75.0215C22.6709 75.4492 22.5215 76.1465 22.5215 77.1133V77.377C22.5215 78.3555 22.6709 79.0586 22.9697 79.4863C23.2686 79.9141 23.7227 80.1279 24.332 80.1279ZM29.3682 77.1572C29.3682 76.2139 29.5498 75.373 29.9131 74.6348C30.2764 73.8965 30.7979 73.3252 31.4775 72.9209C32.1631 72.5166 32.957 72.3145 33.8594 72.3145C35.1426 72.3145 36.1885 72.707 36.9971 73.4922C37.8115 74.2773 38.2656 75.3438 38.3594 76.6914L38.377 77.3418C38.377 78.8008 37.9697 79.9727 37.1553 80.8574C36.3408 81.7363 35.248 82.1758 33.877 82.1758C32.5059 82.1758 31.4102 81.7363 30.5898 80.8574C29.7754 79.9785 29.3682 78.7832 29.3682 77.2715V77.1572ZM31.9082 77.3418C31.9082 78.2441 32.0781 78.9355 32.418 79.416C32.7578 79.8906 33.2441 80.1279 33.877 80.1279C34.4922 80.1279 34.9727 79.8936 35.3184 79.4248C35.6641 78.9502 35.8369 78.1943 35.8369 77.1572C35.8369 76.2725 35.6641 75.5869 35.3184 75.1006C34.9727 74.6143 34.4863 74.3711 33.8594 74.3711C33.2383 74.3711 32.7578 74.6143 32.418 75.1006C32.0781 75.5811 31.9082 76.3281 31.9082 77.3418ZM39.5723 77.1748C39.5723 75.7158 39.918 74.541 40.6094 73.6504C41.3066 72.7598 42.2441 72.3145 43.4219 72.3145C44.4648 72.3145 45.2764 72.6719 45.8564 73.3867L45.9619 72.4902H48.2646V81.6836C48.2646 82.5156 48.0742 83.2393 47.6934 83.8545C47.3184 84.4697 46.7881 84.9385 46.1025 85.2607C45.417 85.583 44.6143 85.7441 43.6943 85.7441C42.9971 85.7441 42.3174 85.6035 41.6553 85.3223C40.9932 85.0469 40.4922 84.6895 40.1523 84.25L41.2773 82.7031C41.9102 83.4121 42.6777 83.7666 43.5801 83.7666C44.2539 83.7666 44.7783 83.585 45.1533 83.2217C45.5283 82.8643 45.7158 82.3545 45.7158 81.6924V81.1826C45.1299 81.8447 44.3594 82.1758 43.4043 82.1758C42.2617 82.1758 41.3359 81.7305 40.627 80.8398C39.9238 79.9434 39.5723 78.7568 39.5723 77.2803V77.1748ZM42.1123 77.3594C42.1123 78.2207 42.2852 78.8975 42.6309 79.3896C42.9766 79.876 43.4512 80.1191 44.0547 80.1191C44.8281 80.1191 45.3818 79.8291 45.7158 79.249V75.25C45.376 74.6699 44.8281 74.3799 44.0723 74.3799C43.4629 74.3799 42.9824 74.6289 42.6309 75.127C42.2852 75.625 42.1123 76.3691 42.1123 77.3594ZM54.6016 82.1758C53.207 82.1758 52.0703 81.748 51.1914 80.8926C50.3184 80.0371 49.8818 78.8975 49.8818 77.4736V77.2275C49.8818 76.2725 50.0664 75.4199 50.4355 74.6699C50.8047 73.9141 51.3262 73.334 52 72.9297C52.6797 72.5195 53.4531 72.3145 54.3203 72.3145C55.6211 72.3145 56.6436 72.7246 57.3877 73.5449C58.1377 74.3652 58.5127 75.5283 58.5127 77.0342V78.0713H52.457C52.5391 78.6924 52.7852 79.1904 53.1953 79.5654C53.6113 79.9404 54.1357 80.1279 54.7686 80.1279C55.7471 80.1279 56.5117 79.7734 57.0625 79.0645L58.3105 80.4619C57.9297 81.001 57.4141 81.4229 56.7637 81.7275C56.1133 82.0264 55.3926 82.1758 54.6016 82.1758ZM54.3115 74.3711C53.8076 74.3711 53.3975 74.541 53.0811 74.8809C52.7705 75.2207 52.5713 75.707 52.4834 76.3398H56.0166V76.1377C56.0049 75.5752 55.8525 75.1416 55.5596 74.8369C55.2666 74.5264 54.8506 74.3711 54.3115 74.3711Z" fill="#61B45A"/>
<path d="M127.104 76.7705H122.042V82H119.405V69.2031H127.737V71.3389H122.042V74.6436H127.104V76.7705ZM128.511 77.1572C128.511 76.2139 128.692 75.373 129.056 74.6348C129.419 73.8965 129.94 73.3252 130.62 72.9209C131.306 72.5166 132.1 72.3145 133.002 72.3145C134.285 72.3145 135.331 72.707 136.14 73.4922C136.954 74.2773 137.408 75.3438 137.502 76.6914L137.52 77.3418C137.52 78.8008 137.112 79.9727 136.298 80.8574C135.483 81.7363 134.391 82.1758 133.02 82.1758C131.648 82.1758 130.553 81.7363 129.732 80.8574C128.918 79.9785 128.511 78.7832 128.511 77.2715V77.1572ZM131.051 77.3418C131.051 78.2441 131.221 78.9355 131.561 79.416C131.9 79.8906 132.387 80.1279 133.02 80.1279C133.635 80.1279 134.115 79.8936 134.461 79.4248C134.807 78.9502 134.979 78.1943 134.979 77.1572C134.979 76.2725 134.807 75.5869 134.461 75.1006C134.115 74.6143 133.629 74.3711 133.002 74.3711C132.381 74.3711 131.9 74.6143 131.561 75.1006C131.221 75.5811 131.051 76.3281 131.051 77.3418ZM141.466 72.4902L141.545 73.5537C142.219 72.7275 143.13 72.3145 144.278 72.3145C145.503 72.3145 146.344 72.7979 146.801 73.7646C147.469 72.7979 148.421 72.3145 149.657 72.3145C150.688 72.3145 151.456 72.6162 151.96 73.2197C152.464 73.8174 152.716 74.7197 152.716 75.9268V82H150.167V75.9355C150.167 75.3965 150.062 75.0039 149.851 74.7578C149.64 74.5059 149.268 74.3799 148.734 74.3799C147.973 74.3799 147.445 74.7432 147.152 75.4697L147.161 82H144.621V75.9443C144.621 75.3936 144.513 74.9951 144.296 74.749C144.079 74.5029 143.71 74.3799 143.188 74.3799C142.468 74.3799 141.946 74.6787 141.624 75.2764V82H139.084V72.4902H141.466ZM160.371 81.0332C159.744 81.7949 158.877 82.1758 157.77 82.1758C156.75 82.1758 155.971 81.8828 155.432 81.2969C154.898 80.7109 154.626 79.8525 154.614 78.7217V72.4902H157.154V78.6338C157.154 79.624 157.605 80.1191 158.508 80.1191C159.369 80.1191 159.961 79.8203 160.283 79.2227V72.4902H162.832V82H160.441L160.371 81.0332ZM167.429 82H164.88V68.5H167.429V82ZM175.04 82C174.923 81.7715 174.838 81.4873 174.785 81.1475C174.17 81.833 173.37 82.1758 172.386 82.1758C171.454 82.1758 170.681 81.9062 170.065 81.3672C169.456 80.8281 169.151 80.1484 169.151 79.3281C169.151 78.3203 169.523 77.5469 170.268 77.0078C171.018 76.4688 172.099 76.1963 173.511 76.1904H174.68V75.6455C174.68 75.2061 174.565 74.8545 174.337 74.5908C174.114 74.3271 173.76 74.1953 173.273 74.1953C172.846 74.1953 172.509 74.2979 172.263 74.5029C172.022 74.708 171.902 74.9893 171.902 75.3467H169.362C169.362 74.7959 169.532 74.2861 169.872 73.8174C170.212 73.3486 170.692 72.9824 171.313 72.7188C171.935 72.4492 172.632 72.3145 173.405 72.3145C174.577 72.3145 175.506 72.6104 176.191 73.2021C176.883 73.7881 177.229 74.6143 177.229 75.6807V79.8027C177.234 80.7051 177.36 81.3877 177.606 81.8506V82H175.04ZM172.939 80.2334C173.314 80.2334 173.66 80.1514 173.977 79.9873C174.293 79.8174 174.527 79.5918 174.68 79.3105V77.6758H173.73C172.459 77.6758 171.782 78.1152 171.7 78.9941L171.691 79.1436C171.691 79.46 171.803 79.7207 172.025 79.9258C172.248 80.1309 172.553 80.2334 172.939 80.2334ZM184.523 74.8721C184.178 74.8252 183.873 74.8018 183.609 74.8018C182.648 74.8018 182.019 75.127 181.72 75.7773V82H179.18V72.4902H181.579L181.649 73.624C182.159 72.751 182.865 72.3145 183.768 72.3145C184.049 72.3145 184.312 72.3525 184.559 72.4287L184.523 74.8721ZM188.435 82H185.886V72.4902H188.435V82ZM185.736 70.0293C185.736 69.6484 185.862 69.335 186.114 69.0889C186.372 68.8428 186.721 68.7197 187.16 68.7197C187.594 68.7197 187.939 68.8428 188.197 69.0889C188.455 69.335 188.584 69.6484 188.584 70.0293C188.584 70.416 188.452 70.7324 188.188 70.9785C187.931 71.2246 187.588 71.3477 187.16 71.3477C186.732 71.3477 186.387 71.2246 186.123 70.9785C185.865 70.7324 185.736 70.416 185.736 70.0293ZM190.14 77.1572C190.14 76.2139 190.321 75.373 190.685 74.6348C191.048 73.8965 191.569 73.3252 192.249 72.9209C192.935 72.5166 193.729 72.3145 194.631 72.3145C195.914 72.3145 196.96 72.707 197.769 73.4922C198.583 74.2773 199.037 75.3438 199.131 76.6914L199.148 77.3418C199.148 78.8008 198.741 79.9727 197.927 80.8574C197.112 81.7363 196.02 82.1758 194.648 82.1758C193.277 82.1758 192.182 81.7363 191.361 80.8574C190.547 79.9785 190.14 78.7832 190.14 77.2715V77.1572ZM192.68 77.3418C192.68 78.2441 192.85 78.9355 193.189 79.416C193.529 79.8906 194.016 80.1279 194.648 80.1279C195.264 80.1279 195.744 79.8936 196.09 79.4248C196.436 78.9502 196.608 78.1943 196.608 77.1572C196.608 76.2725 196.436 75.5869 196.09 75.1006C195.744 74.6143 195.258 74.3711 194.631 74.3711C194.01 74.3711 193.529 74.6143 193.189 75.1006C192.85 75.5811 192.68 76.3281 192.68 77.3418Z" fill="#595959"/>
<path d="M275.387 76.4541H270.324V79.8818H276.266V82H267.688V69.2031H276.248V71.3389H270.324V74.3887H275.387V76.4541ZM279.983 72.4902L280.062 73.5889C280.742 72.7393 281.653 72.3145 282.796 72.3145C283.804 72.3145 284.554 72.6104 285.046 73.2021C285.538 73.7939 285.79 74.6787 285.802 75.8564V82H283.262V75.918C283.262 75.3789 283.145 74.9893 282.91 74.749C282.676 74.5029 282.286 74.3799 281.741 74.3799C281.026 74.3799 280.49 74.6846 280.133 75.2939V82H277.593V72.4902H279.983ZM291.295 78.8975L293.062 72.4902H295.716L292.508 82H290.082L286.874 72.4902H289.528L291.295 78.8975ZM299.583 82H297.043V72.4902H299.583V82ZM298.836 68.6318H301.604L299.17 71.3564H297.104L298.836 68.6318ZM307.291 82C307.174 81.7715 307.089 81.4873 307.036 81.1475C306.421 81.833 305.621 82.1758 304.637 82.1758C303.705 82.1758 302.932 81.9062 302.316 81.3672C301.707 80.8281 301.402 80.1484 301.402 79.3281C301.402 78.3203 301.774 77.5469 302.519 77.0078C303.269 76.4688 304.35 76.1963 305.762 76.1904H306.931V75.6455C306.931 75.2061 306.816 74.8545 306.588 74.5908C306.365 74.3271 306.011 74.1953 305.524 74.1953C305.097 74.1953 304.76 74.2979 304.514 74.5029C304.273 74.708 304.153 74.9893 304.153 75.3467H301.613C301.613 74.7959 301.783 74.2861 302.123 73.8174C302.463 73.3486 302.943 72.9824 303.564 72.7188C304.186 72.4492 304.883 72.3145 305.656 72.3145C306.828 72.3145 307.757 72.6104 308.442 73.2021C309.134 73.7881 309.479 74.6143 309.479 75.6807V79.8027C309.485 80.7051 309.611 81.3877 309.857 81.8506V82H307.291ZM305.19 80.2334C305.565 80.2334 305.911 80.1514 306.228 79.9873C306.544 79.8174 306.778 79.5918 306.931 79.3105V77.6758H305.981C304.71 77.6758 304.033 78.1152 303.951 78.9941L303.942 79.1436C303.942 79.46 304.054 79.7207 304.276 79.9258C304.499 80.1309 304.804 80.2334 305.19 80.2334Z" fill="#B0B0B0"/>
</svg>
