<svg width="322" height="86" viewBox="0 0 322 86" fill="none" xmlns="http://www.w3.org/2000/svg">
<circle cx="29" cy="25" r="25" fill="#C5165B"/>
<path d="M33.5781 37H28.75V23.7812L28.7969 21.6094L28.875 19.2344C28.0729 20.0365 27.5156 20.5625 27.2031 20.8125L24.5781 22.9219L22.25 20.0156L29.6094 14.1562H33.5781V37Z" fill="white"/>
<line x1="59" y1="22" x2="129" y2="22" stroke="#C5165B" stroke-width="6"/>
<circle cx="159" cy="25" r="22.5" stroke="#C5165B" stroke-width="5"/>
<path d="M167.609 37H151.641V33.6406L157.375 27.8438C159.073 26.1042 160.182 24.901 160.703 24.2344C161.224 23.5573 161.599 22.9323 161.828 22.3594C162.057 21.7865 162.172 21.1927 162.172 20.5781C162.172 19.6615 161.917 18.9792 161.406 18.5312C160.906 18.0833 160.234 17.8594 159.391 17.8594C158.505 17.8594 157.646 18.0625 156.812 18.4688C155.979 18.875 155.109 19.4531 154.203 20.2031L151.578 17.0938C152.703 16.1354 153.635 15.4583 154.375 15.0625C155.115 14.6667 155.922 14.3646 156.797 14.1562C157.672 13.9375 158.651 13.8281 159.734 13.8281C161.161 13.8281 162.422 14.0885 163.516 14.6094C164.609 15.1302 165.458 15.8594 166.062 16.7969C166.667 17.7344 166.969 18.8073 166.969 20.0156C166.969 21.0677 166.781 22.0573 166.406 22.9844C166.042 23.901 165.469 24.8438 164.688 25.8125C163.917 26.7812 162.552 28.1615 160.594 29.9531L157.656 32.7188V32.9375H167.609V37Z" fill="#C5165B"/>
<line x1="189" y1="22" x2="259" y2="22" stroke="#C5165B" stroke-width="6"/>
<circle cx="289" cy="25" r="22.5" stroke="#C5165B" stroke-width="5"/>
<path d="M296.719 19.2656C296.719 20.6927 296.286 21.9062 295.422 22.9062C294.557 23.9062 293.344 24.5938 291.781 24.9688V25.0625C293.625 25.2917 295.021 25.8542 295.969 26.75C296.917 27.6354 297.391 28.8333 297.391 30.3438C297.391 32.5417 296.594 34.2552 295 35.4844C293.406 36.7031 291.13 37.3125 288.172 37.3125C285.693 37.3125 283.495 36.901 281.578 36.0781V31.9688C282.464 32.4167 283.438 32.7812 284.5 33.0625C285.562 33.3438 286.615 33.4844 287.656 33.4844C289.25 33.4844 290.427 33.2135 291.188 32.6719C291.948 32.1302 292.328 31.2604 292.328 30.0625C292.328 28.9896 291.891 28.2292 291.016 27.7812C290.141 27.3333 288.745 27.1094 286.828 27.1094H285.094V23.4062H286.859C288.63 23.4062 289.922 23.1771 290.734 22.7188C291.557 22.25 291.969 21.4531 291.969 20.3281C291.969 18.599 290.885 17.7344 288.719 17.7344C287.969 17.7344 287.203 17.8594 286.422 18.1094C285.651 18.3594 284.792 18.7917 283.844 19.4062L281.609 16.0781C283.693 14.5781 286.177 13.8281 289.062 13.8281C291.427 13.8281 293.292 14.3073 294.656 15.2656C296.031 16.224 296.719 17.5573 296.719 19.2656Z" fill="#C5165B"/>
<path d="M8.85449 76.4541H3.79199V79.8818H9.7334V82H1.15527V69.2031H9.71582V71.3389H3.79199V74.3887H8.85449V76.4541ZM16.2637 79.3721C16.2637 79.0615 16.1084 78.8184 15.7979 78.6426C15.4932 78.4609 15.001 78.2998 14.3213 78.1592C12.0596 77.6846 10.9287 76.7236 10.9287 75.2764C10.9287 74.4326 11.2773 73.7295 11.9746 73.167C12.6777 72.5986 13.5947 72.3145 14.7256 72.3145C15.9326 72.3145 16.8965 72.5986 17.6172 73.167C18.3438 73.7354 18.707 74.4736 18.707 75.3818H16.167C16.167 75.0186 16.0498 74.7197 15.8154 74.4854C15.5811 74.2451 15.2148 74.125 14.7168 74.125C14.2891 74.125 13.958 74.2217 13.7236 74.415C13.4893 74.6084 13.3721 74.8545 13.3721 75.1533C13.3721 75.4346 13.5039 75.6631 13.7676 75.8389C14.0371 76.0088 14.4883 76.1582 15.1211 76.2871C15.7539 76.4102 16.2871 76.5508 16.7207 76.709C18.0625 77.2012 18.7334 78.0537 18.7334 79.2666C18.7334 80.1338 18.3613 80.8369 17.6172 81.376C16.873 81.9092 15.9121 82.1758 14.7344 82.1758C13.9375 82.1758 13.2285 82.0352 12.6074 81.7539C11.9922 81.4668 11.5088 81.0771 11.1572 80.585C10.8057 80.0869 10.6299 79.5508 10.6299 78.9766H13.0381C13.0615 79.4277 13.2285 79.7734 13.5391 80.0137C13.8496 80.2539 14.2656 80.374 14.7871 80.374C15.2734 80.374 15.6396 80.2832 15.8857 80.1016C16.1377 79.9141 16.2637 79.6709 16.2637 79.3721ZM24.332 80.1279C24.8008 80.1279 25.1816 79.999 25.4746 79.7412C25.7676 79.4834 25.9199 79.1406 25.9316 78.7129H28.3135C28.3076 79.3574 28.1318 79.9492 27.7861 80.4883C27.4404 81.0215 26.9658 81.4375 26.3623 81.7363C25.7646 82.0293 25.1025 82.1758 24.376 82.1758C23.0166 82.1758 21.9443 81.7451 21.1592 80.8838C20.374 80.0166 19.9814 78.8213 19.9814 77.2979V77.1309C19.9814 75.666 20.3711 74.4971 21.1504 73.624C21.9297 72.751 22.999 72.3145 24.3584 72.3145C25.5479 72.3145 26.5 72.6543 27.2148 73.334C27.9355 74.0078 28.3018 74.9072 28.3135 76.0322H25.9316C25.9199 75.54 25.7676 75.1416 25.4746 74.8369C25.1816 74.5264 24.7949 74.3711 24.3145 74.3711C23.7227 74.3711 23.2744 74.5879 22.9697 75.0215C22.6709 75.4492 22.5215 76.1465 22.5215 77.1133V77.377C22.5215 78.3555 22.6709 79.0586 22.9697 79.4863C23.2686 79.9141 23.7227 80.1279 24.332 80.1279ZM29.3682 77.1572C29.3682 76.2139 29.5498 75.373 29.9131 74.6348C30.2764 73.8965 30.7979 73.3252 31.4775 72.9209C32.1631 72.5166 32.957 72.3145 33.8594 72.3145C35.1426 72.3145 36.1885 72.707 36.9971 73.4922C37.8115 74.2773 38.2656 75.3438 38.3594 76.6914L38.377 77.3418C38.377 78.8008 37.9697 79.9727 37.1553 80.8574C36.3408 81.7363 35.248 82.1758 33.877 82.1758C32.5059 82.1758 31.4102 81.7363 30.5898 80.8574C29.7754 79.9785 29.3682 78.7832 29.3682 77.2715V77.1572ZM31.9082 77.3418C31.9082 78.2441 32.0781 78.9355 32.418 79.416C32.7578 79.8906 33.2441 80.1279 33.877 80.1279C34.4922 80.1279 34.9727 79.8936 35.3184 79.4248C35.6641 78.9502 35.8369 78.1943 35.8369 77.1572C35.8369 76.2725 35.6641 75.5869 35.3184 75.1006C34.9727 74.6143 34.4863 74.3711 33.8594 74.3711C33.2383 74.3711 32.7578 74.6143 32.418 75.1006C32.0781 75.5811 31.9082 76.3281 31.9082 77.3418ZM39.5723 77.1748C39.5723 75.7158 39.918 74.541 40.6094 73.6504C41.3066 72.7598 42.2441 72.3145 43.4219 72.3145C44.4648 72.3145 45.2764 72.6719 45.8564 73.3867L45.9619 72.4902H48.2646V81.6836C48.2646 82.5156 48.0742 83.2393 47.6934 83.8545C47.3184 84.4697 46.7881 84.9385 46.1025 85.2607C45.417 85.583 44.6143 85.7441 43.6943 85.7441C42.9971 85.7441 42.3174 85.6035 41.6553 85.3223C40.9932 85.0469 40.4922 84.6895 40.1523 84.25L41.2773 82.7031C41.9102 83.4121 42.6777 83.7666 43.5801 83.7666C44.2539 83.7666 44.7783 83.585 45.1533 83.2217C45.5283 82.8643 45.7158 82.3545 45.7158 81.6924V81.1826C45.1299 81.8447 44.3594 82.1758 43.4043 82.1758C42.2617 82.1758 41.3359 81.7305 40.627 80.8398C39.9238 79.9434 39.5723 78.7568 39.5723 77.2803V77.1748ZM42.1123 77.3594C42.1123 78.2207 42.2852 78.8975 42.6309 79.3896C42.9766 79.876 43.4512 80.1191 44.0547 80.1191C44.8281 80.1191 45.3818 79.8291 45.7158 79.249V75.25C45.376 74.6699 44.8281 74.3799 44.0723 74.3799C43.4629 74.3799 42.9824 74.6289 42.6309 75.127C42.2852 75.625 42.1123 76.3691 42.1123 77.3594ZM54.6016 82.1758C53.207 82.1758 52.0703 81.748 51.1914 80.8926C50.3184 80.0371 49.8818 78.8975 49.8818 77.4736V77.2275C49.8818 76.2725 50.0664 75.4199 50.4355 74.6699C50.8047 73.9141 51.3262 73.334 52 72.9297C52.6797 72.5195 53.4531 72.3145 54.3203 72.3145C55.6211 72.3145 56.6436 72.7246 57.3877 73.5449C58.1377 74.3652 58.5127 75.5283 58.5127 77.0342V78.0713H52.457C52.5391 78.6924 52.7852 79.1904 53.1953 79.5654C53.6113 79.9404 54.1357 80.1279 54.7686 80.1279C55.7471 80.1279 56.5117 79.7734 57.0625 79.0645L58.3105 80.4619C57.9297 81.001 57.4141 81.4229 56.7637 81.7275C56.1133 82.0264 55.3926 82.1758 54.6016 82.1758ZM54.3115 74.3711C53.8076 74.3711 53.3975 74.541 53.0811 74.8809C52.7705 75.2207 52.5713 75.707 52.4834 76.3398H56.0166V76.1377C56.0049 75.5752 55.8525 75.1416 55.5596 74.8369C55.2666 74.5264 54.8506 74.3711 54.3115 74.3711Z" fill="#595959"/>
<path d="M124.317 76.7705H119.255V82H116.618V69.2031H124.95V71.3389H119.255V74.6436H124.317V76.7705ZM125.724 77.1572C125.724 76.2139 125.905 75.373 126.269 74.6348C126.632 73.8965 127.153 73.3252 127.833 72.9209C128.519 72.5166 129.312 72.3145 130.215 72.3145C131.498 72.3145 132.544 72.707 133.353 73.4922C134.167 74.2773 134.621 75.3438 134.715 76.6914L134.732 77.3418C134.732 78.8008 134.325 79.9727 133.511 80.8574C132.696 81.7363 131.604 82.1758 130.232 82.1758C128.861 82.1758 127.766 81.7363 126.945 80.8574C126.131 79.9785 125.724 78.7832 125.724 77.2715V77.1572ZM128.264 77.3418C128.264 78.2441 128.434 78.9355 128.773 79.416C129.113 79.8906 129.6 80.1279 130.232 80.1279C130.848 80.1279 131.328 79.8936 131.674 79.4248C132.02 78.9502 132.192 78.1943 132.192 77.1572C132.192 76.2725 132.02 75.5869 131.674 75.1006C131.328 74.6143 130.842 74.3711 130.215 74.3711C129.594 74.3711 129.113 74.6143 128.773 75.1006C128.434 75.5811 128.264 76.3281 128.264 77.3418ZM141.641 74.8721C141.295 74.8252 140.99 74.8018 140.727 74.8018C139.766 74.8018 139.136 75.127 138.837 75.7773V82H136.297V72.4902H138.696L138.767 73.624C139.276 72.751 139.982 72.3145 140.885 72.3145C141.166 72.3145 141.43 72.3525 141.676 72.4287L141.641 74.8721ZM145.253 72.4902L145.332 73.5537C146.006 72.7275 146.917 72.3145 148.065 72.3145C149.29 72.3145 150.131 72.7979 150.588 73.7646C151.256 72.7979 152.208 72.3145 153.444 72.3145C154.476 72.3145 155.243 72.6162 155.747 73.2197C156.251 73.8174 156.503 74.7197 156.503 75.9268V82H153.954V75.9355C153.954 75.3965 153.849 75.0039 153.638 74.7578C153.427 74.5059 153.055 74.3799 152.521 74.3799C151.76 74.3799 151.232 74.7432 150.939 75.4697L150.948 82H148.408V75.9443C148.408 75.3936 148.3 74.9951 148.083 74.749C147.866 74.5029 147.497 74.3799 146.976 74.3799C146.255 74.3799 145.733 74.6787 145.411 75.2764V82H142.871V72.4902H145.253ZM164.158 81.0332C163.531 81.7949 162.664 82.1758 161.557 82.1758C160.537 82.1758 159.758 81.8828 159.219 81.2969C158.686 80.7109 158.413 79.8525 158.401 78.7217V72.4902H160.941V78.6338C160.941 79.624 161.393 80.1191 162.295 80.1191C163.156 80.1191 163.748 79.8203 164.07 79.2227V72.4902H166.619V82H164.229L164.158 81.0332ZM171.216 82H168.667V68.5H171.216V82ZM178.827 82C178.71 81.7715 178.625 81.4873 178.572 81.1475C177.957 81.833 177.157 82.1758 176.173 82.1758C175.241 82.1758 174.468 81.9062 173.853 81.3672C173.243 80.8281 172.938 80.1484 172.938 79.3281C172.938 78.3203 173.311 77.5469 174.055 77.0078C174.805 76.4688 175.886 76.1963 177.298 76.1904H178.467V75.6455C178.467 75.2061 178.353 74.8545 178.124 74.5908C177.901 74.3271 177.547 74.1953 177.061 74.1953C176.633 74.1953 176.296 74.2979 176.05 74.5029C175.81 74.708 175.689 74.9893 175.689 75.3467H173.149C173.149 74.7959 173.319 74.2861 173.659 73.8174C173.999 73.3486 174.479 72.9824 175.101 72.7188C175.722 72.4492 176.419 72.3145 177.192 72.3145C178.364 72.3145 179.293 72.6104 179.979 73.2021C180.67 73.7881 181.016 74.6143 181.016 75.6807V79.8027C181.021 80.7051 181.147 81.3877 181.394 81.8506V82H178.827ZM176.727 80.2334C177.102 80.2334 177.447 80.1514 177.764 79.9873C178.08 79.8174 178.314 79.5918 178.467 79.3105V77.6758H177.518C176.246 77.6758 175.569 78.1152 175.487 78.9941L175.479 79.1436C175.479 79.46 175.59 79.7207 175.812 79.9258C176.035 80.1309 176.34 80.2334 176.727 80.2334ZM188.311 74.8721C187.965 74.8252 187.66 74.8018 187.396 74.8018C186.436 74.8018 185.806 75.127 185.507 75.7773V82H182.967V72.4902H185.366L185.437 73.624C185.946 72.751 186.652 72.3145 187.555 72.3145C187.836 72.3145 188.1 72.3525 188.346 72.4287L188.311 74.8721ZM192.222 82H189.673V72.4902H192.222V82ZM189.523 70.0293C189.523 69.6484 189.649 69.335 189.901 69.0889C190.159 68.8428 190.508 68.7197 190.947 68.7197C191.381 68.7197 191.727 68.8428 191.984 69.0889C192.242 69.335 192.371 69.6484 192.371 70.0293C192.371 70.416 192.239 70.7324 191.976 70.9785C191.718 71.2246 191.375 71.3477 190.947 71.3477C190.52 71.3477 190.174 71.2246 189.91 70.9785C189.652 70.7324 189.523 70.416 189.523 70.0293ZM193.927 77.1572C193.927 76.2139 194.108 75.373 194.472 74.6348C194.835 73.8965 195.356 73.3252 196.036 72.9209C196.722 72.5166 197.516 72.3145 198.418 72.3145C199.701 72.3145 200.747 72.707 201.556 73.4922C202.37 74.2773 202.824 75.3438 202.918 76.6914L202.936 77.3418C202.936 78.8008 202.528 79.9727 201.714 80.8574C200.899 81.7363 199.807 82.1758 198.436 82.1758C197.064 82.1758 195.969 81.7363 195.148 80.8574C194.334 79.9785 193.927 78.7832 193.927 77.2715V77.1572ZM196.467 77.3418C196.467 78.2441 196.637 78.9355 196.977 79.416C197.316 79.8906 197.803 80.1279 198.436 80.1279C199.051 80.1279 199.531 79.8936 199.877 79.4248C200.223 78.9502 200.396 78.1943 200.396 77.1572C200.396 76.2725 200.223 75.5869 199.877 75.1006C199.531 74.6143 199.045 74.3711 198.418 74.3711C197.797 74.3711 197.316 74.6143 196.977 75.1006C196.637 75.5811 196.467 76.3281 196.467 77.3418Z" fill="#B0B0B0"/>
<path d="M275.387 76.4541H270.324V79.8818H276.266V82H267.688V69.2031H276.248V71.3389H270.324V74.3887H275.387V76.4541ZM279.983 72.4902L280.062 73.5889C280.742 72.7393 281.653 72.3145 282.796 72.3145C283.804 72.3145 284.554 72.6104 285.046 73.2021C285.538 73.7939 285.79 74.6787 285.802 75.8564V82H283.262V75.918C283.262 75.3789 283.145 74.9893 282.91 74.749C282.676 74.5029 282.286 74.3799 281.741 74.3799C281.026 74.3799 280.49 74.6846 280.133 75.2939V82H277.593V72.4902H279.983ZM291.295 78.8975L293.062 72.4902H295.716L292.508 82H290.082L286.874 72.4902H289.528L291.295 78.8975ZM299.583 82H297.043V72.4902H299.583V82ZM298.836 68.6318H301.604L299.17 71.3564H297.104L298.836 68.6318ZM307.291 82C307.174 81.7715 307.089 81.4873 307.036 81.1475C306.421 81.833 305.621 82.1758 304.637 82.1758C303.705 82.1758 302.932 81.9062 302.316 81.3672C301.707 80.8281 301.402 80.1484 301.402 79.3281C301.402 78.3203 301.774 77.5469 302.519 77.0078C303.269 76.4688 304.35 76.1963 305.762 76.1904H306.931V75.6455C306.931 75.2061 306.816 74.8545 306.588 74.5908C306.365 74.3271 306.011 74.1953 305.524 74.1953C305.097 74.1953 304.76 74.2979 304.514 74.5029C304.273 74.708 304.153 74.9893 304.153 75.3467H301.613C301.613 74.7959 301.783 74.2861 302.123 73.8174C302.463 73.3486 302.943 72.9824 303.564 72.7188C304.186 72.4492 304.883 72.3145 305.656 72.3145C306.828 72.3145 307.757 72.6104 308.442 73.2021C309.134 73.7881 309.479 74.6143 309.479 75.6807V79.8027C309.485 80.7051 309.611 81.3877 309.857 81.8506V82H307.291ZM305.19 80.2334C305.565 80.2334 305.911 80.1514 306.228 79.9873C306.544 79.8174 306.778 79.5918 306.931 79.3105V77.6758H305.981C304.71 77.6758 304.033 78.1152 303.951 78.9941L303.942 79.1436C303.942 79.46 304.054 79.7207 304.276 79.9258C304.499 80.1309 304.804 80.2334 305.19 80.2334Z" fill="#B0B0B0"/>
</svg>
