<svg width="322" height="86" viewBox="0 0 322 86" fill="none" xmlns="http://www.w3.org/2000/svg">
<circle cx="29" cy="25" r="25" fill="#61B45A"/>
<path fill-rule="evenodd" clip-rule="evenodd" d="M37.5859 15.6691C38.0145 15.242 38.5931 15.0017 39.1966 15C39.8002 14.9983 40.3801 15.2355 40.8111 15.6601C41.242 16.0848 41.4894 16.6629 41.4997 17.2694C41.5099 17.8759 41.2823 18.4621 40.866 18.9013L28.6397 34.2621C28.4296 34.4896 28.1759 34.6722 27.894 34.7989C27.6121 34.9256 27.3076 34.9939 26.9988 34.9996C26.6901 35.0054 26.3833 34.9485 26.0969 34.8323C25.8105 34.7162 25.5503 34.5432 25.332 34.3237L17.2311 26.1784C17.0054 25.9671 16.8244 25.7122 16.6989 25.429C16.5733 25.1458 16.5058 24.8401 16.5004 24.5301C16.4949 24.2201 16.5517 23.9122 16.6672 23.6247C16.7827 23.3372 16.9547 23.0761 17.1728 22.8568C17.3909 22.6376 17.6507 22.4648 17.9367 22.3486C18.2228 22.2325 18.5291 22.1755 18.8376 22.181C19.146 22.1864 19.4501 22.2543 19.7319 22.3805C20.0137 22.5067 20.2673 22.6886 20.4776 22.9154L26.8909 29.3584L37.5277 15.7368C37.5466 15.713 37.5671 15.6903 37.5889 15.6691H37.5859Z" fill="white"/>
<line x1="59" y1="22" x2="129" y2="22" stroke="#61B45A" stroke-width="6"/>
<circle cx="159" cy="25" r="25" fill="#61B45A"/>
<path fill-rule="evenodd" clip-rule="evenodd" d="M167.586 15.6691C168.014 15.242 168.593 15.0017 169.197 15C169.8 14.9983 170.38 15.2355 170.811 15.6601C171.242 16.0848 171.489 16.6629 171.5 17.2694C171.51 17.8759 171.282 18.4621 170.866 18.9013L158.64 34.2621C158.43 34.4896 158.176 34.6722 157.894 34.7989C157.612 34.9256 157.308 34.9939 156.999 34.9996C156.69 35.0054 156.383 34.9485 156.097 34.8323C155.81 34.7162 155.55 34.5432 155.332 34.3237L147.231 26.1784C147.005 25.9671 146.824 25.7122 146.699 25.429C146.573 25.1458 146.506 24.8401 146.5 24.5301C146.495 24.2201 146.552 23.9122 146.667 23.6247C146.783 23.3372 146.955 23.0761 147.173 22.8568C147.391 22.6376 147.651 22.4648 147.937 22.3486C148.223 22.2325 148.529 22.1755 148.838 22.181C149.146 22.1864 149.45 22.2543 149.732 22.3805C150.014 22.5067 150.267 22.6886 150.478 22.9154L156.891 29.3584L167.528 15.7368C167.547 15.713 167.567 15.6903 167.589 15.6691H167.586Z" fill="white"/>
<line x1="189" y1="22" x2="259" y2="22" stroke="#61B45A" stroke-width="6"/>
<circle cx="289" cy="25" r="25" fill="#61B45A"/>
<path fill-rule="evenodd" clip-rule="evenodd" d="M297.586 15.6691C298.014 15.242 298.593 15.0017 299.197 15C299.8 14.9983 300.38 15.2355 300.811 15.6601C301.242 16.0848 301.489 16.6629 301.5 17.2694C301.51 17.8759 301.282 18.4621 300.866 18.9013L288.64 34.2621C288.43 34.4896 288.176 34.6722 287.894 34.7989C287.612 34.9256 287.308 34.9939 286.999 34.9996C286.69 35.0054 286.383 34.9485 286.097 34.8323C285.81 34.7162 285.55 34.5432 285.332 34.3237L277.231 26.1784C277.005 25.9671 276.824 25.7122 276.699 25.429C276.573 25.1458 276.506 24.8401 276.5 24.5301C276.495 24.2201 276.552 23.9122 276.667 23.6247C276.783 23.3372 276.955 23.0761 277.173 22.8568C277.391 22.6376 277.651 22.4648 277.937 22.3486C278.223 22.2325 278.529 22.1755 278.838 22.181C279.146 22.1864 279.45 22.2543 279.732 22.3805C280.014 22.5067 280.267 22.6886 280.478 22.9154L286.891 29.3584L297.528 15.7368C297.547 15.713 297.567 15.6903 297.589 15.6691H297.586Z" fill="white"/>
<path d="M8.85449 76.4541H3.79199V79.8818H9.7334V82H1.15527V69.2031H9.71582V71.3389H3.79199V74.3887H8.85449V76.4541ZM16.2637 79.3721C16.2637 79.0615 16.1084 78.8184 15.7979 78.6426C15.4932 78.4609 15.001 78.2998 14.3213 78.1592C12.0596 77.6846 10.9287 76.7236 10.9287 75.2764C10.9287 74.4326 11.2773 73.7295 11.9746 73.167C12.6777 72.5986 13.5947 72.3145 14.7256 72.3145C15.9326 72.3145 16.8965 72.5986 17.6172 73.167C18.3438 73.7354 18.707 74.4736 18.707 75.3818H16.167C16.167 75.0186 16.0498 74.7197 15.8154 74.4854C15.5811 74.2451 15.2148 74.125 14.7168 74.125C14.2891 74.125 13.958 74.2217 13.7236 74.415C13.4893 74.6084 13.3721 74.8545 13.3721 75.1533C13.3721 75.4346 13.5039 75.6631 13.7676 75.8389C14.0371 76.0088 14.4883 76.1582 15.1211 76.2871C15.7539 76.4102 16.2871 76.5508 16.7207 76.709C18.0625 77.2012 18.7334 78.0537 18.7334 79.2666C18.7334 80.1338 18.3613 80.8369 17.6172 81.376C16.873 81.9092 15.9121 82.1758 14.7344 82.1758C13.9375 82.1758 13.2285 82.0352 12.6074 81.7539C11.9922 81.4668 11.5088 81.0771 11.1572 80.585C10.8057 80.0869 10.6299 79.5508 10.6299 78.9766H13.0381C13.0615 79.4277 13.2285 79.7734 13.5391 80.0137C13.8496 80.2539 14.2656 80.374 14.7871 80.374C15.2734 80.374 15.6396 80.2832 15.8857 80.1016C16.1377 79.9141 16.2637 79.6709 16.2637 79.3721ZM24.332 80.1279C24.8008 80.1279 25.1816 79.999 25.4746 79.7412C25.7676 79.4834 25.9199 79.1406 25.9316 78.7129H28.3135C28.3076 79.3574 28.1318 79.9492 27.7861 80.4883C27.4404 81.0215 26.9658 81.4375 26.3623 81.7363C25.7646 82.0293 25.1025 82.1758 24.376 82.1758C23.0166 82.1758 21.9443 81.7451 21.1592 80.8838C20.374 80.0166 19.9814 78.8213 19.9814 77.2979V77.1309C19.9814 75.666 20.3711 74.4971 21.1504 73.624C21.9297 72.751 22.999 72.3145 24.3584 72.3145C25.5479 72.3145 26.5 72.6543 27.2148 73.334C27.9355 74.0078 28.3018 74.9072 28.3135 76.0322H25.9316C25.9199 75.54 25.7676 75.1416 25.4746 74.8369C25.1816 74.5264 24.7949 74.3711 24.3145 74.3711C23.7227 74.3711 23.2744 74.5879 22.9697 75.0215C22.6709 75.4492 22.5215 76.1465 22.5215 77.1133V77.377C22.5215 78.3555 22.6709 79.0586 22.9697 79.4863C23.2686 79.9141 23.7227 80.1279 24.332 80.1279ZM29.3682 77.1572C29.3682 76.2139 29.5498 75.373 29.9131 74.6348C30.2764 73.8965 30.7979 73.3252 31.4775 72.9209C32.1631 72.5166 32.957 72.3145 33.8594 72.3145C35.1426 72.3145 36.1885 72.707 36.9971 73.4922C37.8115 74.2773 38.2656 75.3438 38.3594 76.6914L38.377 77.3418C38.377 78.8008 37.9697 79.9727 37.1553 80.8574C36.3408 81.7363 35.248 82.1758 33.877 82.1758C32.5059 82.1758 31.4102 81.7363 30.5898 80.8574C29.7754 79.9785 29.3682 78.7832 29.3682 77.2715V77.1572ZM31.9082 77.3418C31.9082 78.2441 32.0781 78.9355 32.418 79.416C32.7578 79.8906 33.2441 80.1279 33.877 80.1279C34.4922 80.1279 34.9727 79.8936 35.3184 79.4248C35.6641 78.9502 35.8369 78.1943 35.8369 77.1572C35.8369 76.2725 35.6641 75.5869 35.3184 75.1006C34.9727 74.6143 34.4863 74.3711 33.8594 74.3711C33.2383 74.3711 32.7578 74.6143 32.418 75.1006C32.0781 75.5811 31.9082 76.3281 31.9082 77.3418ZM39.5723 77.1748C39.5723 75.7158 39.918 74.541 40.6094 73.6504C41.3066 72.7598 42.2441 72.3145 43.4219 72.3145C44.4648 72.3145 45.2764 72.6719 45.8564 73.3867L45.9619 72.4902H48.2646V81.6836C48.2646 82.5156 48.0742 83.2393 47.6934 83.8545C47.3184 84.4697 46.7881 84.9385 46.1025 85.2607C45.417 85.583 44.6143 85.7441 43.6943 85.7441C42.9971 85.7441 42.3174 85.6035 41.6553 85.3223C40.9932 85.0469 40.4922 84.6895 40.1523 84.25L41.2773 82.7031C41.9102 83.4121 42.6777 83.7666 43.5801 83.7666C44.2539 83.7666 44.7783 83.585 45.1533 83.2217C45.5283 82.8643 45.7158 82.3545 45.7158 81.6924V81.1826C45.1299 81.8447 44.3594 82.1758 43.4043 82.1758C42.2617 82.1758 41.3359 81.7305 40.627 80.8398C39.9238 79.9434 39.5723 78.7568 39.5723 77.2803V77.1748ZM42.1123 77.3594C42.1123 78.2207 42.2852 78.8975 42.6309 79.3896C42.9766 79.876 43.4512 80.1191 44.0547 80.1191C44.8281 80.1191 45.3818 79.8291 45.7158 79.249V75.25C45.376 74.6699 44.8281 74.3799 44.0723 74.3799C43.4629 74.3799 42.9824 74.6289 42.6309 75.127C42.2852 75.625 42.1123 76.3691 42.1123 77.3594ZM54.6016 82.1758C53.207 82.1758 52.0703 81.748 51.1914 80.8926C50.3184 80.0371 49.8818 78.8975 49.8818 77.4736V77.2275C49.8818 76.2725 50.0664 75.4199 50.4355 74.6699C50.8047 73.9141 51.3262 73.334 52 72.9297C52.6797 72.5195 53.4531 72.3145 54.3203 72.3145C55.6211 72.3145 56.6436 72.7246 57.3877 73.5449C58.1377 74.3652 58.5127 75.5283 58.5127 77.0342V78.0713H52.457C52.5391 78.6924 52.7852 79.1904 53.1953 79.5654C53.6113 79.9404 54.1357 80.1279 54.7686 80.1279C55.7471 80.1279 56.5117 79.7734 57.0625 79.0645L58.3105 80.4619C57.9297 81.001 57.4141 81.4229 56.7637 81.7275C56.1133 82.0264 55.3926 82.1758 54.6016 82.1758ZM54.3115 74.3711C53.8076 74.3711 53.3975 74.541 53.0811 74.8809C52.7705 75.2207 52.5713 75.707 52.4834 76.3398H56.0166V76.1377C56.0049 75.5752 55.8525 75.1416 55.5596 74.8369C55.2666 74.5264 54.8506 74.3711 54.3115 74.3711Z" fill="#61B45A"/>
<path d="M124.317 76.7705H119.255V82H116.618V69.2031H124.95V71.3389H119.255V74.6436H124.317V76.7705ZM125.724 77.1572C125.724 76.2139 125.905 75.373 126.269 74.6348C126.632 73.8965 127.153 73.3252 127.833 72.9209C128.519 72.5166 129.312 72.3145 130.215 72.3145C131.498 72.3145 132.544 72.707 133.353 73.4922C134.167 74.2773 134.621 75.3438 134.715 76.6914L134.732 77.3418C134.732 78.8008 134.325 79.9727 133.511 80.8574C132.696 81.7363 131.604 82.1758 130.232 82.1758C128.861 82.1758 127.766 81.7363 126.945 80.8574C126.131 79.9785 125.724 78.7832 125.724 77.2715V77.1572ZM128.264 77.3418C128.264 78.2441 128.434 78.9355 128.773 79.416C129.113 79.8906 129.6 80.1279 130.232 80.1279C130.848 80.1279 131.328 79.8936 131.674 79.4248C132.02 78.9502 132.192 78.1943 132.192 77.1572C132.192 76.2725 132.02 75.5869 131.674 75.1006C131.328 74.6143 130.842 74.3711 130.215 74.3711C129.594 74.3711 129.113 74.6143 128.773 75.1006C128.434 75.5811 128.264 76.3281 128.264 77.3418ZM141.641 74.8721C141.295 74.8252 140.99 74.8018 140.727 74.8018C139.766 74.8018 139.136 75.127 138.837 75.7773V82H136.297V72.4902H138.696L138.767 73.624C139.276 72.751 139.982 72.3145 140.885 72.3145C141.166 72.3145 141.43 72.3525 141.676 72.4287L141.641 74.8721ZM145.253 72.4902L145.332 73.5537C146.006 72.7275 146.917 72.3145 148.065 72.3145C149.29 72.3145 150.131 72.7979 150.588 73.7646C151.256 72.7979 152.208 72.3145 153.444 72.3145C154.476 72.3145 155.243 72.6162 155.747 73.2197C156.251 73.8174 156.503 74.7197 156.503 75.9268V82H153.954V75.9355C153.954 75.3965 153.849 75.0039 153.638 74.7578C153.427 74.5059 153.055 74.3799 152.521 74.3799C151.76 74.3799 151.232 74.7432 150.939 75.4697L150.948 82H148.408V75.9443C148.408 75.3936 148.3 74.9951 148.083 74.749C147.866 74.5029 147.497 74.3799 146.976 74.3799C146.255 74.3799 145.733 74.6787 145.411 75.2764V82H142.871V72.4902H145.253ZM164.158 81.0332C163.531 81.7949 162.664 82.1758 161.557 82.1758C160.537 82.1758 159.758 81.8828 159.219 81.2969C158.686 80.7109 158.413 79.8525 158.401 78.7217V72.4902H160.941V78.6338C160.941 79.624 161.393 80.1191 162.295 80.1191C163.156 80.1191 163.748 79.8203 164.07 79.2227V72.4902H166.619V82H164.229L164.158 81.0332ZM171.216 82H168.667V68.5H171.216V82ZM178.827 82C178.71 81.7715 178.625 81.4873 178.572 81.1475C177.957 81.833 177.157 82.1758 176.173 82.1758C175.241 82.1758 174.468 81.9062 173.853 81.3672C173.243 80.8281 172.938 80.1484 172.938 79.3281C172.938 78.3203 173.311 77.5469 174.055 77.0078C174.805 76.4688 175.886 76.1963 177.298 76.1904H178.467V75.6455C178.467 75.2061 178.353 74.8545 178.124 74.5908C177.901 74.3271 177.547 74.1953 177.061 74.1953C176.633 74.1953 176.296 74.2979 176.05 74.5029C175.81 74.708 175.689 74.9893 175.689 75.3467H173.149C173.149 74.7959 173.319 74.2861 173.659 73.8174C173.999 73.3486 174.479 72.9824 175.101 72.7188C175.722 72.4492 176.419 72.3145 177.192 72.3145C178.364 72.3145 179.293 72.6104 179.979 73.2021C180.67 73.7881 181.016 74.6143 181.016 75.6807V79.8027C181.021 80.7051 181.147 81.3877 181.394 81.8506V82H178.827ZM176.727 80.2334C177.102 80.2334 177.447 80.1514 177.764 79.9873C178.08 79.8174 178.314 79.5918 178.467 79.3105V77.6758H177.518C176.246 77.6758 175.569 78.1152 175.487 78.9941L175.479 79.1436C175.479 79.46 175.59 79.7207 175.812 79.9258C176.035 80.1309 176.34 80.2334 176.727 80.2334ZM188.311 74.8721C187.965 74.8252 187.66 74.8018 187.396 74.8018C186.436 74.8018 185.806 75.127 185.507 75.7773V82H182.967V72.4902H185.366L185.437 73.624C185.946 72.751 186.652 72.3145 187.555 72.3145C187.836 72.3145 188.1 72.3525 188.346 72.4287L188.311 74.8721ZM192.222 82H189.673V72.4902H192.222V82ZM189.523 70.0293C189.523 69.6484 189.649 69.335 189.901 69.0889C190.159 68.8428 190.508 68.7197 190.947 68.7197C191.381 68.7197 191.727 68.8428 191.984 69.0889C192.242 69.335 192.371 69.6484 192.371 70.0293C192.371 70.416 192.239 70.7324 191.976 70.9785C191.718 71.2246 191.375 71.3477 190.947 71.3477C190.52 71.3477 190.174 71.2246 189.91 70.9785C189.652 70.7324 189.523 70.416 189.523 70.0293ZM193.927 77.1572C193.927 76.2139 194.108 75.373 194.472 74.6348C194.835 73.8965 195.356 73.3252 196.036 72.9209C196.722 72.5166 197.516 72.3145 198.418 72.3145C199.701 72.3145 200.747 72.707 201.556 73.4922C202.37 74.2773 202.824 75.3438 202.918 76.6914L202.936 77.3418C202.936 78.8008 202.528 79.9727 201.714 80.8574C200.899 81.7363 199.807 82.1758 198.436 82.1758C197.064 82.1758 195.969 81.7363 195.148 80.8574C194.334 79.9785 193.927 78.7832 193.927 77.2715V77.1572ZM196.467 77.3418C196.467 78.2441 196.637 78.9355 196.977 79.416C197.316 79.8906 197.803 80.1279 198.436 80.1279C199.051 80.1279 199.531 79.8936 199.877 79.4248C200.223 78.9502 200.396 78.1943 200.396 77.1572C200.396 76.2725 200.223 75.5869 199.877 75.1006C199.531 74.6143 199.045 74.3711 198.418 74.3711C197.797 74.3711 197.316 74.6143 196.977 75.1006C196.637 75.5811 196.467 76.3281 196.467 77.3418Z" fill="#61B45A"/>
<path d="M275.387 76.4541H270.324V79.8818H276.266V82H267.688V69.2031H276.248V71.3389H270.324V74.3887H275.387V76.4541ZM279.983 72.4902L280.062 73.5889C280.742 72.7393 281.653 72.3145 282.796 72.3145C283.804 72.3145 284.554 72.6104 285.046 73.2021C285.538 73.7939 285.79 74.6787 285.802 75.8564V82H283.262V75.918C283.262 75.3789 283.145 74.9893 282.91 74.749C282.676 74.5029 282.286 74.3799 281.741 74.3799C281.026 74.3799 280.49 74.6846 280.133 75.2939V82H277.593V72.4902H279.983ZM291.295 78.8975L293.062 72.4902H295.716L292.508 82H290.082L286.874 72.4902H289.528L291.295 78.8975ZM299.583 82H297.043V72.4902H299.583V82ZM298.836 68.6318H301.604L299.17 71.3564H297.104L298.836 68.6318ZM307.291 82C307.174 81.7715 307.089 81.4873 307.036 81.1475C306.421 81.833 305.621 82.1758 304.637 82.1758C303.705 82.1758 302.932 81.9062 302.316 81.3672C301.707 80.8281 301.402 80.1484 301.402 79.3281C301.402 78.3203 301.774 77.5469 302.519 77.0078C303.269 76.4688 304.35 76.1963 305.762 76.1904H306.931V75.6455C306.931 75.2061 306.816 74.8545 306.588 74.5908C306.365 74.3271 306.011 74.1953 305.524 74.1953C305.097 74.1953 304.76 74.2979 304.514 74.5029C304.273 74.708 304.153 74.9893 304.153 75.3467H301.613C301.613 74.7959 301.783 74.2861 302.123 73.8174C302.463 73.3486 302.943 72.9824 303.564 72.7188C304.186 72.4492 304.883 72.3145 305.656 72.3145C306.828 72.3145 307.757 72.6104 308.442 73.2021C309.134 73.7881 309.479 74.6143 309.479 75.6807V79.8027C309.485 80.7051 309.611 81.3877 309.857 81.8506V82H307.291ZM305.19 80.2334C305.565 80.2334 305.911 80.1514 306.228 79.9873C306.544 79.8174 306.778 79.5918 306.931 79.3105V77.6758H305.981C304.71 77.6758 304.033 78.1152 303.951 78.9941L303.942 79.1436C303.942 79.46 304.054 79.7207 304.276 79.9258C304.499 80.1309 304.804 80.2334 305.19 80.2334Z" fill="#717171"/>
</svg>
