<svg width="21" height="10" viewBox="0 0 21 10" fill="none" xmlns="http://www.w3.org/2000/svg">
<path d="M20.2558 4.22568L16.2742 0.244013C16.0358 0.00575645 15.6775 -0.0655052 15.3661 0.0634481C15.0548 0.192401 14.8517 0.496183 14.8517 0.83318V3.35651C14.8517 3.47157 14.7584 3.56485 14.6433 3.56485H1.75C1.05964 3.56485 0.5 4.12449 0.5 4.81485C0.5 5.5052 1.05964 6.06485 1.75 6.06485H14.6433C14.7584 6.06485 14.8517 6.15812 14.8517 6.27318V8.79651C14.8517 9.13351 15.0548 9.43729 15.3661 9.56625C15.6775 9.6952 16.0358 9.62394 16.2742 9.38568L20.2558 5.40401C20.5812 5.0786 20.5812 4.5511 20.2558 4.22568Z" fill="white"/>
</svg>
