<svg width="142" height="142" viewBox="0 0 142 142" fill="none" xmlns="http://www.w3.org/2000/svg">
<g id="Icon - Anchor">
<circle id="Icon Bg" cx="71.07" cy="70.8479" r="70.8479" fill="#F9F7F7"/>
<g id="Icon">
<path id="Vector" d="M66.5261 53.3668C72.1954 51.8477 75.5597 46.0205 74.0407 40.3512C72.5216 34.682 66.6943 31.3176 61.0251 32.8367C55.3558 34.3557 51.9915 40.183 53.5105 45.8523C55.0296 51.5215 60.8569 54.8859 66.5261 53.3668Z" stroke="#C5165B" stroke-width="2" stroke-linecap="round" stroke-linejoin="round"/>
<path id="Vector_2" d="M79.3619 101.27L66.5261 53.3666" stroke="#C5165B" stroke-width="2" stroke-linecap="round" stroke-linejoin="round"/>
<path id="Vector_3" d="M46.2414 73.4713L35.9763 76.2218C38.4079 85.2967 44.3449 93.034 52.4813 97.7315C60.6176 102.429 70.2867 103.702 79.3616 101.27C88.4365 98.8387 96.1738 92.9017 100.871 84.7654C105.569 76.6291 106.842 66.9599 104.41 57.885L94.1451 60.6356" stroke="#C5165B" stroke-width="2" stroke-linecap="round" stroke-linejoin="round"/>
</g>
</g>
</svg>
