<svg width="14" height="14" viewBox="0 0 14 14" fill="none" xmlns="http://www.w3.org/2000/svg">
<path d="M6.99995 3.7953C5.22651 3.7953 3.79526 5.22655 3.79526 6.99999C3.79526 8.77343 5.22651 10.2047 6.99995 10.2047C8.77339 10.2047 10.2046 8.77343 10.2046 6.99999C10.2046 5.22655 8.77339 3.7953 6.99995 3.7953ZM6.99995 9.0828C5.85308 9.0828 4.91714 8.14686 4.91714 6.99999C4.91714 5.85311 5.85308 4.91718 6.99995 4.91718C8.14683 4.91718 9.08276 5.85311 9.08276 6.99999C9.08276 8.14686 8.14683 9.0828 6.99995 9.0828ZM10.3359 2.91718C9.92183 2.91718 9.58745 3.25155 9.58745 3.66561C9.58745 4.07968 9.92183 4.41405 10.3359 4.41405C10.75 4.41405 11.0843 4.08124 11.0843 3.66561C11.0845 3.56729 11.0652 3.46991 11.0276 3.37905C10.99 3.28819 10.9349 3.20564 10.8654 3.13611C10.7959 3.06659 10.7133 3.01147 10.6225 2.9739C10.5316 2.93633 10.4342 2.91705 10.3359 2.91718V2.91718ZM13.2468 6.99999C13.2468 6.13749 13.2546 5.2828 13.2062 4.42186C13.1578 3.42186 12.9296 2.53436 12.1984 1.80311C11.4656 1.0703 10.5796 0.843739 9.57964 0.795301C8.71714 0.746864 7.86245 0.754676 7.00151 0.754676C6.13901 0.754676 5.28433 0.746864 4.42339 0.795301C3.42339 0.843739 2.53589 1.07186 1.80464 1.80311C1.07183 2.53593 0.845265 3.42186 0.796827 4.42186C0.74839 5.28436 0.756202 6.13905 0.756202 6.99999C0.756202 7.86093 0.74839 8.71718 0.796827 9.57811C0.845265 10.5781 1.07339 11.4656 1.80464 12.1969C2.53745 12.9297 3.42339 13.1562 4.42339 13.2047C5.28589 13.2531 6.14058 13.2453 7.00151 13.2453C7.86401 13.2453 8.7187 13.2531 9.57964 13.2047C10.5796 13.1562 11.4671 12.9281 12.1984 12.1969C12.9312 11.4641 13.1578 10.5781 13.2062 9.57811C13.2562 8.71718 13.2468 7.86249 13.2468 6.99999V6.99999ZM11.8718 10.6844C11.7578 10.9687 11.6203 11.1812 11.4 11.4C11.1796 11.6203 10.9687 11.7578 10.6843 11.8719C9.86245 12.1984 7.91089 12.125 6.99995 12.125C6.08901 12.125 4.13589 12.1984 3.31401 11.8734C3.02964 11.7594 2.81714 11.6219 2.59839 11.4016C2.37808 11.1812 2.24058 10.9703 2.12651 10.6859C1.80151 9.86249 1.87495 7.91093 1.87495 6.99999C1.87495 6.08905 1.80151 4.13593 2.12651 3.31405C2.24058 3.02968 2.37808 2.81718 2.59839 2.59843C2.8187 2.37968 3.02964 2.24061 3.31401 2.12655C4.13589 1.80155 6.08901 1.87499 6.99995 1.87499C7.91089 1.87499 9.86402 1.80155 10.6859 2.12655C10.9703 2.24061 11.1828 2.37811 11.4015 2.59843C11.6218 2.81874 11.7593 3.02968 11.8734 3.31405C12.1984 4.13593 12.125 6.08905 12.125 6.99999C12.125 7.91093 12.1984 9.86249 11.8718 10.6844Z" fill="white"/>
</svg>
