<svg width="21" height="21" viewBox="0 0 21 21" fill="none" xmlns="http://www.w3.org/2000/svg">
<path fill-rule="evenodd" clip-rule="evenodd" d="M20.037 20.501H15.885V14.005C15.885 12.455 15.859 10.463 13.728 10.463C11.568 10.463 11.238 12.151 11.238 13.893V20.501H7.09V7.141H11.07V8.968H11.128C11.681 7.918 13.036 6.81 15.056 6.81C19.26 6.81 20.036 9.576 20.036 13.174V20.501H20.037ZM2.409 5.317C2.09257 5.31726 1.7792 5.25513 1.48681 5.13416C1.19441 5.01319 0.928743 4.83576 0.704994 4.61201C0.481245 4.38826 0.30381 4.12259 0.182839 3.8302C0.0618689 3.5378 -0.000262201 3.22443 8.31678e-07 2.908C9.95919e-07 2.43183 0.141178 1.96635 0.405684 1.5704C0.67019 1.17445 1.04615 0.865805 1.48604 0.68349C1.92593 0.501176 2.40999 0.453373 2.87704 0.546124C3.34409 0.638875 3.77316 0.868017 4.11001 1.20458C4.44685 1.54115 4.67635 1.97002 4.76949 2.437C4.86263 2.90397 4.81523 3.38808 4.63328 3.82812C4.45133 4.26816 4.143 4.64437 3.74727 4.90921C3.35154 5.17404 2.88617 5.31561 2.41 5.316L2.409 5.317ZM4.486 20.501H0.330001V7.141H4.486V20.501Z" fill="white"/>
</svg>
