<svg width="100" height="88" viewBox="0 0 100 88" fill="none" xmlns="http://www.w3.org/2000/svg">
<path d="M33.3333 25.5208C33.3333 28.559 32.36 31.1403 30.4133 33.2646C28.4667 35.3889 26.1067 36.4535 23.3333 36.4583C20.56 36.4632 18.2 35.3986 16.2533 33.2646C14.3067 31.1306 13.3333 28.5493 13.3333 25.5208C13.3333 22.4924 14.3067 19.9111 16.2533 17.7771C18.2 15.6431 20.56 14.5785 23.3333 14.5833C26.1067 14.5882 28.4667 15.6528 30.4133 17.7771C32.36 19.9014 33.3333 22.4826 33.3333 25.5208ZM86.6667 47.3958V72.9167H13.3333V61.9792L30 43.75L38.3333 52.8646L65 23.6979L86.6667 47.3958ZM91.6667 7.29167H8.33333C7.88 7.29167 7.48889 7.47153 7.16 7.83125C6.83111 8.19097 6.66667 8.61875 6.66667 9.11458V78.3854C6.66667 78.8812 6.83111 79.309 7.16 79.6687C7.48889 80.0285 7.88 80.2083 8.33333 80.2083H91.6667C92.12 80.2083 92.5111 80.0285 92.84 79.6687C93.1689 79.309 93.3333 78.8812 93.3333 78.3854V9.11458C93.3333 8.61875 93.1689 8.19097 92.84 7.83125C92.5111 7.47153 92.12 7.29167 91.6667 7.29167ZM100 9.11458V78.3854C100 80.8937 99.1844 83.0399 97.5533 84.824C95.9222 86.608 93.96 87.5 91.6667 87.5H8.33333C6.04 87.5 4.07778 86.608 2.44667 84.824C0.815556 83.0399 0 80.8937 0 78.3854V9.11458C0 6.60625 0.815556 4.46007 2.44667 2.67604C4.07778 0.892013 6.04 0 8.33333 0H91.6667C93.96 0 95.9222 0.892013 97.5533 2.67604C99.1844 4.46007 100 6.60625 100 9.11458Z" fill="white"/>
</svg>
