<svg width="140" height="123" viewBox="0 0 140 123" fill="none" xmlns="http://www.w3.org/2000/svg">
<path d="M72.1876 53.5938H87.5001V45.9375H78.7501V42.1094H70.0001V46.1289C67.3419 46.6012 64.9791 47.9209 63.3704 49.8317C61.7617 51.7426 61.0219 54.1083 61.2944 56.4696C61.567 58.831 62.8326 61.0194 64.8456 62.6102C66.8585 64.201 69.4752 65.0805 72.1876 65.0781H76.5626C77.1427 65.0781 77.6991 65.2798 78.1094 65.6387C78.5196 65.9977 78.7501 66.4845 78.7501 66.9922C78.7501 67.4998 78.5196 67.9867 78.1094 68.3456C77.6991 68.7046 77.1427 68.9062 76.5626 68.9062H61.2501V76.5625H70.0001V80.3906H78.7501V76.3711C81.4082 75.8988 83.771 74.5791 85.3797 72.6683C86.9884 70.7574 87.7283 68.3917 87.4557 66.0304C87.1831 63.6691 85.9175 61.4806 83.9045 59.8898C81.8916 58.2991 79.275 57.4195 76.5626 57.4219H72.1876C71.6074 57.4219 71.051 57.2202 70.6408 56.8613C70.2305 56.5023 70.0001 56.0155 70.0001 55.5078C70.0001 55.0002 70.2305 54.5133 70.6408 54.1544C71.051 53.7954 71.6074 53.5938 72.1876 53.5938Z" fill="#F7CD09"/>
<path d="M126.875 49.7656H118.037C117.912 46.7411 117.078 43.7714 115.588 41.0401C114.098 38.3088 111.983 35.8741 109.375 33.8866V19.1406C109.375 18.4297 109.149 17.7328 108.722 17.1281C108.294 16.5233 107.683 16.0346 106.957 15.7166C106.23 15.3987 105.416 15.2641 104.607 15.328C103.798 15.3918 103.025 15.6516 102.375 16.0781L86.0431 26.7969H65.625C41.5187 26.7969 24.2244 39.2038 22.1025 57.4219H21.875C20.7147 57.4219 19.6019 57.0186 18.7814 56.3006C17.9609 55.5827 17.5 54.609 17.5 53.5938V45.9375H8.75V53.5938C8.75347 56.6387 10.1374 59.558 12.5981 61.7111C15.0587 63.8642 18.3951 65.0751 21.875 65.0781H22.1813C22.8157 70.0978 24.6802 74.9387 27.6474 79.2705C30.6146 83.6023 34.6148 87.3232 39.375 90.1791V103.359C39.375 104.375 39.8359 105.348 40.6564 106.066C41.4769 106.784 42.5897 107.188 43.75 107.188H61.25C62.4103 107.188 63.5231 106.784 64.3436 106.066C65.1641 105.348 65.625 104.375 65.625 103.359V95.7031H78.75V103.359C78.75 104.375 79.2109 105.348 80.0314 106.066C80.8519 106.784 81.9647 107.188 83.125 107.188H100.625C101.785 107.188 102.898 106.784 103.719 106.066C104.539 105.348 105 104.375 105 103.359V90.4854C108.16 89.1744 110.923 87.231 113.066 84.8122C115.209 82.3934 116.67 79.5673 117.333 76.5625H126.875C128.035 76.5625 129.148 76.1592 129.969 75.4413C130.789 74.7234 131.25 73.7497 131.25 72.7344V53.5938C131.25 52.5785 130.789 51.6048 129.969 50.8869C129.148 50.1689 128.035 49.7656 126.875 49.7656ZM122.5 68.9062H109.918C108.583 79.4451 106.312 82.2473 96.25 85.4246V99.5312H87.5V88.0469H56.875V99.5312H48.125V85.6658C42.8571 83.4728 38.4128 80.0112 35.3133 75.6868C32.2138 71.3624 30.5874 66.3544 30.625 61.25C30.625 42.741 48.2037 34.4531 65.625 34.4531H88.9569L100.625 26.7969V37.4238C111.204 44.5441 108.994 49.6202 109.454 57.4219H122.5V68.9062Z" fill="#F7CD09"/>
</svg>
