<svg width="121" height="120" viewBox="0 0 121 120" fill="none" xmlns="http://www.w3.org/2000/svg">
<path d="M116.47 35.6479L84.5966 3.77563C82.1622 1.34033 78.9158 0 75.4551 0C71.9935 0 68.747 1.34125 66.3126 3.77563L11.847 58.2413C6.80609 63.2822 6.80609 71.4844 11.847 76.5253L14.6476 79.325L1.27997 92.6926C-0.0933228 94.0659 -0.0933228 96.2915 1.27997 97.6648C1.9657 98.3514 2.86566 98.6938 3.76562 98.6938C4.66559 98.6938 5.56464 98.3514 6.25128 97.6648L19.6189 84.2963L25.297 89.9753L1.27997 113.994C-0.0933228 115.367 -0.0933228 117.593 1.27997 118.965C1.9657 119.652 2.86566 119.995 3.76562 119.995C4.66559 119.995 5.56464 119.652 6.25128 118.965L30.2683 94.9475L35.9482 100.626L22.5806 113.994C21.2073 115.367 21.2073 117.592 22.5806 118.965C23.2673 119.652 24.1663 119.995 25.0663 119.995C25.9662 119.995 26.8653 119.652 27.5519 118.965L40.9196 105.598L43.7192 108.398C46.1545 110.833 49.401 112.173 52.8617 112.173C56.3224 112.173 59.5688 110.833 62.0042 108.398L116.47 53.9328C121.511 48.8919 121.511 40.6888 116.47 35.6479ZM69.7303 10.3015L61.1701 53.0988L18.3719 61.6589L69.7303 10.3015ZM111.498 48.9606L57.0328 103.426C55.926 104.533 54.4446 105.142 52.8617 105.142C51.2787 105.142 49.7983 104.533 48.6906 103.426L32.7558 87.4905L32.7549 87.4896L32.7531 87.4887L22.1055 76.8402L22.1046 76.8393L22.1036 76.8384L16.8192 71.554C16.193 70.9277 15.7389 70.1944 15.4532 69.4125L64.8478 59.534C66.2394 59.2557 67.327 58.168 67.6053 56.7764L77.4839 7.38373C78.2813 7.67303 79.011 8.13263 79.6253 8.74695L111.498 40.6201C113.797 42.919 113.797 46.6608 111.498 48.9606Z" fill="#C5165B"/>
</svg>
