<svg width="23" height="19" viewBox="0 0 23 19" fill="none" xmlns="http://www.w3.org/2000/svg">
<path d="M22.9617 2.61613C22.1435 2.975 21.2718 3.21288 20.3629 3.32838C21.2979 2.77013 22.0115 1.89287 22.347 0.8355C21.4753 1.35525 20.5128 1.72238 19.487 1.92725C18.6593 1.04588 17.4795 0.5 16.1925 0.5C13.6955 0.5 11.6853 2.52675 11.6853 5.01137C11.6853 5.36888 11.7155 5.71263 11.7898 6.03988C8.04017 5.857 4.72229 4.05988 2.49342 1.32225C2.10429 1.99738 1.87604 2.77012 1.87604 3.602C1.87604 5.164 2.68042 6.54862 3.87942 7.35025C3.15479 7.3365 2.44392 7.12613 1.84167 6.79475C1.84167 6.8085 1.84167 6.82638 1.84167 6.84425C1.84167 9.036 3.40505 10.8565 5.45517 11.2759C5.08805 11.3763 4.68792 11.4244 4.27267 11.4244C3.98392 11.4244 3.69242 11.4079 3.41879 11.3474C4.00317 13.1335 5.66142 14.4466 7.63317 14.4893C6.09867 15.6896 4.1503 16.4129 2.04104 16.4129C1.67117 16.4129 1.31642 16.3964 0.96167 16.351C2.95954 17.6394 5.3273 18.375 7.88067 18.375C16.1802 18.375 20.7177 11.5 20.7177 5.54075C20.7177 5.34137 20.7108 5.14887 20.7012 4.95775C21.5963 4.3225 22.3484 3.52913 22.9617 2.61613Z" fill="white"/>
</svg>
