<svg width="140" height="123" viewBox="0 0 140 123" fill="none" xmlns="http://www.w3.org/2000/svg">
<path d="M58.3333 57.8472H70V64.6528H58.3333V57.8472Z" fill="#F7CD09"/>
<path d="M102.861 48.2175C95.964 38.342 86.555 29.9926 75.3667 23.8196C70.198 20.9532 64.3059 19.2376 58.205 18.8223C52.1041 18.4071 45.9797 19.305 40.3667 21.4376C35.457 23.464 31.1848 26.5056 27.919 30.2999C24.6533 34.0941 22.4921 38.5269 21.6222 43.2154C21.3111 44.8147 21.0778 46.346 20.8444 47.8432C17.2035 48.3596 13.8906 49.9912 11.4972 52.447C9.10383 54.9027 7.78559 58.0227 7.77778 61.2501V82.1092C7.77778 83.9141 8.59722 85.6451 10.0558 86.9214C11.5145 88.1977 13.4928 88.9147 15.5556 88.9147V61.2501C15.5556 59.4452 16.375 57.7142 17.8336 56.4379C19.2922 55.1616 21.2705 54.4446 23.3333 54.4446H96.1722C103.667 54.4536 110.852 57.0628 116.152 61.7002C121.452 66.3375 124.434 72.6246 124.444 79.1828V81.6668H116.667C115.024 78.1623 111.965 75.3097 108.072 73.6532C104.179 71.9967 99.7252 71.6523 95.5607 72.6857C91.3961 73.7192 87.8122 76.0581 85.4928 79.2562C83.1734 82.4544 82.2809 86.2877 82.9857 90.0249C83.6904 93.7621 85.943 97.1414 89.3136 99.518C92.6842 101.895 96.9369 103.102 101.26 102.91C105.583 102.718 109.675 101.14 112.753 98.4772C115.831 95.8142 117.681 92.2528 117.95 88.4724H124.444C126.507 88.4724 128.486 87.7553 129.944 86.4791C131.403 85.2028 132.222 83.4718 132.222 81.6668V79.1828C132.207 71.8393 129.266 64.7303 123.908 59.0787C118.549 53.4271 111.107 49.5865 102.861 48.2175ZM42.7778 47.639H26.95C26.95 46.5842 27.3 45.4953 27.5333 44.2363C28.2052 40.4982 29.9586 36.9726 32.6269 33.9946C35.2951 31.0167 38.7895 28.6854 42.7778 27.2224V47.639ZM50.5556 47.639V25.7932C57.8159 24.9682 65.1791 26.3626 71.4 29.7404C79.8923 34.3688 87.2219 40.4581 92.9444 47.639H50.5556ZM100.333 96.571C98.4105 96.571 96.5308 96.072 94.9319 95.1373C93.3331 94.2025 92.087 92.8739 91.3512 91.3195C90.6153 89.7651 90.4228 88.0546 90.7979 86.4044C91.1731 84.7542 92.099 83.2384 93.4587 82.0487C94.8184 80.859 96.5507 80.0488 98.4366 79.7205C100.323 79.3923 102.277 79.5608 104.054 80.2046C105.83 80.8485 107.349 81.9389 108.417 83.3378C109.485 84.7368 110.056 86.3815 110.056 88.064C110.056 90.3202 109.031 92.484 107.208 94.0793C105.385 95.6747 102.912 96.571 100.333 96.571V96.571Z" fill="#F7CD09"/>
<path d="M55.1056 81.6665C53.4631 78.162 50.4036 75.3094 46.5107 73.6528C42.6178 71.9963 38.1642 71.6519 33.9996 72.6854C29.835 73.7189 26.2511 76.0578 23.9317 79.2559C21.6123 82.454 20.7199 86.2874 21.4246 90.0246C22.1293 93.7618 24.3819 97.1411 27.7525 99.5177C31.1232 101.894 35.3758 103.102 39.6991 102.91C44.0223 102.718 48.1134 101.14 51.1918 98.4769C54.2701 95.8139 56.1202 92.2524 56.3889 88.472H77V87.6213C76.9231 85.6137 77.1852 83.6072 77.7778 81.6665H55.1056ZM38.8889 96.5707C36.966 96.5707 35.0864 96.0717 33.4875 95.137C31.8887 94.2022 30.6426 92.8736 29.9068 91.3192C29.1709 89.7647 28.9784 88.0543 29.3535 86.4041C29.7286 84.7539 30.6546 83.2381 32.0143 82.0484C33.3739 80.8587 35.1063 80.0485 36.9922 79.7202C38.8781 79.392 40.8329 79.5604 42.6095 80.2043C44.386 80.8482 45.9044 81.9385 46.9727 83.3375C48.0409 84.7365 48.6111 86.3812 48.6111 88.0637C48.6111 90.3199 47.5868 92.4837 45.7636 94.079C43.9403 95.6744 41.4674 96.5707 38.8889 96.5707V96.5707Z" fill="#F7CD09"/>
</svg>
