<svg width="140" height="123" viewBox="0 0 140 123" fill="none" xmlns="http://www.w3.org/2000/svg">
<g clip-path="url(#clip0)">
<path fill-rule="evenodd" clip-rule="evenodd" d="M131.25 31.125H8.75V92.375H131.25V31.125ZM8.75 23.4688C6.42936 23.4688 4.20376 24.2754 2.56282 25.7112C0.921873 27.147 0 29.0944 0 31.125L0 92.375C0 94.4056 0.921873 96.353 2.56282 97.7888C4.20376 99.2246 6.42936 100.031 8.75 100.031H131.25C133.571 100.031 135.796 99.2246 137.437 97.7888C139.078 96.353 140 94.4056 140 92.375V31.125C140 29.0944 139.078 27.147 137.437 25.7112C135.796 24.2754 133.571 23.4688 131.25 23.4688H8.75Z" fill="#F7CD09"/>
<path d="M113.75 31.125C113.75 35.1861 115.594 39.0809 118.876 41.9526C122.158 44.8242 126.609 46.4375 131.25 46.4375V31.125H113.75ZM26.25 31.125C26.25 35.1861 24.4063 39.0809 21.1244 41.9526C17.8425 44.8242 13.3913 46.4375 8.75 46.4375V31.125H26.25ZM113.75 92.375C113.75 88.3139 115.594 84.4191 118.876 81.5474C122.158 78.6758 126.609 77.0625 131.25 77.0625V92.375H113.75ZM26.25 92.375C26.25 88.3139 24.4063 84.4191 21.1244 81.5474C17.8425 78.6758 13.3913 77.0625 8.75 77.0625V92.375H26.25ZM87.5 61.75C87.5 65.8111 85.6563 69.7059 82.3744 72.5776C79.0925 75.4492 74.6413 77.0625 70 77.0625C65.3587 77.0625 60.9075 75.4492 57.6256 72.5776C54.3437 69.7059 52.5 65.8111 52.5 61.75C52.5 57.6889 54.3437 53.7941 57.6256 50.9224C60.9075 48.0508 65.3587 46.4375 70 46.4375C74.6413 46.4375 79.0925 48.0508 82.3744 50.9224C85.6563 53.7941 87.5 57.6889 87.5 61.75V61.75Z" fill="#F7CD09"/>
</g>
<defs>
<clipPath id="clip0">
<rect width="140" height="122.5" fill="white" transform="translate(0 0.5)"/>
</clipPath>
</defs>
</svg>
